<?xml version="1.0" encoding="utf-8"?>
<!-- Generator: Adobe Illustrator 25.4.1, SVG Export Plug-In . SVG Version: 6.00 Build 0)  -->
<svg version="1.1" id="Layer_1" xmlns="http://www.w3.org/2000/svg" xmlns:xlink="http://www.w3.org/1999/xlink" x="0px" y="0px"
	 viewBox="0 0 1920 1080" style="enable-background:new 0 0 1920 1080;" xml:space="preserve">
<style type="text/css">
	.st0{fill:#ED1C24;}
	.st1{fill:#0048E9;}
</style>
<g>
	<path class="st0" d="M528.07,413.67c-2.67,3.67-4.6,5.99-5.78,6.95c-1.19,0.96-2.56,1.75-4.12,2.36c-1.56,0.61-2.97,0.92-4.23,0.92
		c-1.26,0-3.89,1.31-7.9,3.93c1.93,5.25,4.97,8.39,9.12,9.44l5.56,10.75l-1.33,10.23l2.22,8.13l-4,5.51l1.78,5.77l-0.89,5.51
		l-1.78,0.52c0.3,1.57,0.44,3.85,0.44,6.82c0,3.5-0.97,6.03-2.89,7.61c0,3.67-0.89,6.91-2.67,9.7l1.78,3.67l-1.33,4.2
		c-3.56,5.07-5.34,10.67-5.34,16.79l0.44,4.2c-3.71,4.9-5.56,9.01-5.56,12.33l0.45,2.36l-1.33-1.05l1.78,13.38h1.33l-1.33,4.72h0.89
		l0.89,12.33l-1.78,0.52l0.89,0.52l-1.78,2.88l-0.89-1.05l0.44,5.25v11.28l4.89,7.08v7.34l1.11-1.05l-3.34,6.56l1.33-0.52l4.67,8.66
		l1.33,0.52l-0.44,3.15l4,1.57c0.74,2.97,2.74,4.72,6.01,5.25l10.01,1.84c3.71,2.45,7.34,3.67,10.9,3.67l3.78-0.52l0.44,2.1h3.11
		l1.33-1.57c4.3,3.5,6.45,7.25,6.45,11.28v4.72c-2.67,0.7-4.53,1.84-5.56,3.41c-8.6,3.15-15.13,4.72-19.58,4.72
		c-1.78,0-3.26-0.35-4.45-1.05l-12.46-7.61l-14.02-4.72l-10.9-10.75l-8.23-1.57l-7.79-7.61l-6.45-20.46L466,592.53
		c-1.19-1.22-1.78-2.45-1.78-3.67l1.78-7.08l-0.89-7.87l4.23-13.64l-0.45-5.25c0-6.29,1.19-11.8,3.56-16.52l3.11-6.56l3.34-11.8
		c4.75-5.77,7.12-11.89,7.12-18.36c0-1.75-0.15-3.15-0.44-4.2l-1.33-8.13c0-0.52,1.7-6.03,5.12-16.52l-2.45-8.13l4.23-1.57
		l-3.56-11.28c-2.22-2.62-3.34-5.16-3.34-7.61l0.44-3.15l-4.89-5.51l-4.23,1.57l-3.11-6.82c-2.52,2.45-4.82,3.67-6.9,3.67
		c-1.78,0-3.26-0.7-4.45-2.1h-6.01l-4.45-4.2c1.48-12.94,6.45-18.44,14.91-16.52c2.37,0.52,4.52,0.79,6.45,0.79
		c3.41,0,6.3-1.57,8.68-4.72l0.89,4.2l6.45-3.67c1.78,0.7,3.26,1.05,4.45,1.05c2.97,0,5.67-1.66,8.12-4.98
		c2.45-3.32,3.67-8.65,3.67-16v-5.77l3.34-4.46v-9.18c2.97-6.12,4.45-11.45,4.45-16v-4.98c0-1.22,0.59-2.79,1.78-4.72l2.45-11.28
		l1.78-12.33c2.82-7.87,5.19-15.56,7.12-23.08c4-3.84,9.19-11.19,15.57-22.03v-0.52c0-0.52,1.26-2.88,3.78-7.08
		c2.52-4.2,7.34-9.35,14.46-15.47l-1.78-1.57l6.45-3.41l3.11-8.92l23.58-6.03l21.58-7.08c2.67-1.05,4.74-1.57,6.23-1.57
		c1.04,0,2.89,0.79,5.56,2.36c2.67,1.57,4,3.67,4,6.29l-0.45,3.15l-0.22,6.29l-0.22,4.98c0,1.05-1.19,4.46-3.56,10.23l-9.12-2.62
		l-2.23-4.2l-7.34,3.15l-6.9-1.05l-5.34,1.57c-3.86,4.02-8.6,8.65-14.24,13.9c-0.15,3.32-2.45,7.21-6.9,11.67
		c-4.45,4.46-6.67,7.56-6.67,9.31l0.44,5.51l-5.56,6.29l-3.56,0.52l0.89,2.62c-1.04,1.57-1.63,6.82-1.78,15.74l-4.67,6.82l0.44,6.03
		c-9.05,20.81-13.57,33.83-13.57,39.08v1.84c-2.82,11.72-4.6,18.4-5.34,20.06c-0.74,1.66-1.11,4.24-1.11,7.74v4.46
		c-2.37,2.62-3.56,4.72-3.56,6.29C527.18,412.09,527.48,413.14,528.07,413.67z"/>
	<path class="st0" d="M856.44,225.88l10.46,1.57l5.12,9.7l-0.89,11.8c0.45,2.27,0.85,4.24,1.22,5.9c0.37,1.66,1,7.04,1.89,16.13
		l1.78,6.29v9.7l5.12,6.03v3.67l7.34,68.19h2.22l3.12,4.72h-7.12c2.82,9.62,5.19,19.5,7.12,29.64l7.34,3.15l6.9-6.82l7.34,3.67h3.12
		l0.89,1.05l1.33-1.05c0.59,0.7,3.63,1.4,9.12,2.1l11.35-9.7l17.8,1.31l0.89-3.93l11.35,3.93l19.8-6.03l4-4.72
		c1.48-1.92,3.41-3.32,5.78-4.2l8.9-3.41l4,7.61h7.34l3.11,10.75c-2.82,6.82-5.56,11.8-8.23,14.95l-2.22-1.57l-17.8,22.03
		l-9.12,7.34H965l-12.24,3.93l-10.68-2.88l-21.36,10.75l-1.33-1.05l-13.13,6.56l3.11,56.91h0.89v2.62l-3.12,3.93l3.12,3.15
		l0.89,12.33l2.22,2.62l-2.22,4.98l4.23,6.82l2.22,20.98l3.12,4.98l3.11-1.31l1.11,3.41l-0.45,3.67h-2.89l0.89,30.69
		c-2.67,5.25-5.42,9.7-8.23,13.38l-8.01,1.05l-2.45,7.61l-5.78-1.05l0.89,6.82l-3.56,5.25c-1.04,1.57-5.04,4.89-12.01,9.97
		l-7.79-7.61c-0.89-0.7-1.93-2.62-3.11-5.77l-2.67-7.61v-14.69l-4.23-23.08l-1.78-3.67l1.78-14.95l-1.78-12.85l4.23-10.23
		l-5.12-21.51c1.33-3.32,2.22-7.78,2.67-13.38l-1.78-3.93l1.78-11.28c0-3.15-0.89-9.61-2.67-19.41l4-10.49l-1.33-17.31l-6.67-4.72
		l-4.67,2.1v-2.1l-10.01,1.05l0.89,7.34l-4.89-1.57l-5.56,1.57l-1.33,1.05c-6.82,4.02-13.5,6.03-20.02,6.03l-6.45-1.05l-13.13,4.72
		l-13.79,2.89l-0.89,6.82l-9.57-4.72v4.72h-1.78l-6.45,7.61h-9.12l3.34,10.75l-8.68-2.1l-13.35,9.44l-3.12,3.93l-7.34-2.62
		l-8.23,7.34h-8.01v7.08l-8.23,1.57l-3.34,8.65l-4,4.72l-5.56,16.79l1.56,1.57c-0.44,1.57-2.89,4.81-7.34,9.7l-0.89,14.42
		l-6.45,5.77l0.89,2.89h-3.11v5.77l-7.34,6.56v2.1c-1.04,1.22-2.75,4.46-5.12,9.7h-1.78l-5.34,18.36l-2-3.41v2.1l-5.34,4.98
		l-1.33,4.98c-0.3,1.75-1.86,4.2-4.67,7.34l-8.23-3.67c-0.89-2.98-1.63-4.64-2.22-4.98l0.89-3.67v-2.1l1.33-4.98
		c-1.63-3.32-2.67-9.97-3.12-19.93l3.12,1.84l-2.22-2.89v-3.67l0.89-1.05l-1.78-6.56l1.78-4.72l-2.22-6.03l1.33-2.1
		c-0.3-3.84-0.59-9.18-0.89-16l4.23-3.93l12.24,11.28h7.34L675.57,533l-4-3.15l0.89-5.51l-8.23,3.93l-1.33,2.62l-1.78-1.05
		l-5.12,3.15c-1.48,1.05-4.67,1.93-9.57,2.62l-7.34-11.28c3.56-10.66,6.75-16.69,9.57-18.1c0-1.92,2.45-5.86,7.34-11.8l5.12-1.84
		l-0.89-1.05l8.23-13.38h0.89l19.58-4.72l2.22,4.72l4-1.05l0.89,1.05h2.45l1.78-4.72l6.45,1.05v-2.1l4.89-4.98l-3.11-6.29l4-7.08
		l10.46-4.72l-0.89-2.89l1.33-3.93c0.3-1.22,2.59-4.02,6.9-8.39c2.82-13.29,5.86-20.98,9.12-23.08h-1.78l10.46-15.47l0.89,1.05
		l15.57-29.11h-0.89l5.78-10.23h1.33l12.46-26.75h1.78l10.46-20.46l3.11-1.05l5.12-11.28c0.59-0.7,1.93-4.63,4-11.8l7.34-6.56v-1.05
		l4-12.33l2.45-1.05l0.89-9.7h3.11l0.89-3.67h0.89l2.45-6.03l17.58-12.33L856.44,225.88z M821.51,304.3l-7.34,2.1v3.67l-7.34,8.65
		h-2.22l-10.01,17.05h-0.89l-7.34,16.79v2.62l-2.67,4.72c-0.89,1.93-2.15,3.41-3.78,4.46l-6.23,4.2l-2.89,8.65
		c-0.89,2.45-1.63,8.57-2.22,18.36l-4-1.05l-0.89,6.82l-8.23,7.61l0.89,1.05v6.03l-7.34,3.67l-5.78,19.15
		c-1.04,3.67-2.15,6.56-3.34,8.65l-5.34,8.65l0.89,1.57v1.05l2.22,1.31h13.13l5.56,3.67l17.35-12.33l14.46-1.05l0.89,3.67l1.33-6.56
		h8.23l14.68-4.72l4,1.57l9.12-3.67v-1.05l13.79-5.51v-1.05l17.13-4.72v-6.03l-5.78-6.29v-20.46l4.89-13.38l-4.89-3.93l-6.45,3.93
		l-8.23-13.64l11.57-1.05v-3.67l-13.79-3.67l1.33-3.93l-4-5.77l2.67-4.98l-7.34-13.38l1.33-2.62l2-1.05l-3.34-3.93l-2.67-18.1
		L821.51,304.3z"/>
	<path class="st1" d="M1278.91,260.24c3.26,3.32,7.04,5.25,11.35,5.77l2.67-3.67h9.57l-7.34,16c0.45,8.04,1.56,17.05,3.34,27.01
		l-3.34,9.7l-4,3.67l3.11,7.08l-19.58,47.73l-5.34,9.18c-0.59,1.05-3.04,3.15-7.34,6.29l-12.24,31.73
		c-4.3,10.49-11.64,20.02-22.02,28.59l-1.78,9.44l-4.67,4.46c-1.78,1.75-3.04,3.67-3.78,5.77l-2.89,8.13l-3.56,1.57
		c-1.04,0.35-3.64,3.41-7.79,9.18h-4.23l-21.8,31.73l-1.78,6.29l-4.67,3.67c-1.48,1.05-3.71,4.42-6.67,10.1
		c-2.97,5.69-5.42,10.8-7.34,15.34l-3.78,2.62c-1.19,0.7-3.12,3.59-5.78,8.66v9.7l6.45,8.65l-9.12,10.75l-7.34,1.05l-4.23,4.72
		l-12.68,10.23l-1.78,6.03l-10.46,7.34v3.41l-7.34,2.62l-6.01-4.98l-3.11-8.39l3.11-23.08l4.23-6.56l-2.22-4.98
		c-3.41-3.15-5.34-5.25-5.78-6.29l-1.78-3.41c-0.44-1.4-0.97-6.56-1.56-15.47l2.67-4.72l-6.01-4.98v-12.33l-2.22-18.1l5.56-1.05
		l0.89-10.23l-3.34-16.79v-5.25l-3.12-1.05v-23.08l-6.01-7.61l0.89-6.03c0.74-1.4,1.56-4.63,2.45-9.7l-4.67-8.39
		c1.04-3.67,1.78-8.56,2.23-14.69l-7.12-3.67l-3.34-7.61h-4l0.89-7.87v-6.56l-2.67-1.05l1.78-3.67l-3.11-9.7l2.22-8.65l-2.22-3.67
		l5.34-9.7l-5.34-2.1l1.33-8.66l-3.34-3.67h-7.12l-0.89,12.33l-6.45,2.1h-5.12l-3.11,4.72l-15.57,2.62l-9.57-1.57l-2.67-4.72
		l-3.11-1.05l1.78-4.98l-1.78-9.44l7.12-9.7h2l7.12-6.56l21.13-11.8l4-6.56l12.24-2.1l2-3.67l12.68-4.98l20.47-12.33l4.23-4.72
		l8.01-1.05c5.49,5.07,8.68,8.65,9.57,10.75c-0.59,4.02-2.38,8.83-5.34,14.42l2.22,12.33l-2.22,6.03l2.22,16l-2.22,4.98l1.33,22.03
		l-5.56,9.44l4.23,6.03l5.34,24.65l-2.22,1.05l-0.89,11.28l5.12,6.03v12.33l1.33,1.05l-1.33,9.7l10.46,14.42l-2.45,8.65l9.57,19.41
		l4.23,18.62l-0.89,16.79l1.78,6.29h3.11l6.45-6.29l0.89-3.15l5.12,1.05l5.34-4.98l2.67-7.34l6.45-8.65
		c3.41-6.47,5.86-10.58,7.34-12.33l4-3.41l12.46-19.67l8.23-4.98l11.35-25.18l7.12-7.61l4.23-9.7l10.46-14.42v-3.67h6.45l2.67-3.93
		l2.23-25.7l3.34-8.66c2.96-3.5,5.34-11.19,7.12-23.08h2c0.89-6.47,1.63-10.05,2.22-10.75l-2.22-7.34l-4.23-0.79
		c-1.19-0.17-4.67-2.79-10.46-7.87l-1.78-9.7l4-8.65l3.34-1.05l9.12-13.38l4-1.05l3.12-6.56l6.45-2.1L1278.91,260.24z"/>
	<path class="st1" d="M1414.17,477.66c3.85-6.82,9.27-10.23,16.24-10.23l5.56-3.67c-1.78-5.42-4.67-8.65-8.68-9.7l-5.78-11.28
		l1.33-10.23l-2.45-8.13l4.67-5.25l-2.22-5.51l1.33-5.77l1.78-0.52c-0.59-4.02-0.89-6.56-0.89-7.61c0-2.62,0.89-4.72,2.67-6.29
		c0-3.67,1.11-7.08,3.34-10.23l-2.45-3.41l1.78-4.72c3.41-4.54,5.12-9.97,5.12-16.26l-0.44-4.72c3.71-4.89,5.56-9,5.56-12.33
		l-0.67-2.1l2,1.05l-2.45-13.38l-1.33,0.52l1.78-5.51h-0.89l-1.33-12.33l2.23-0.52l-1.33-0.52l2-2.62l1.33,1.05l-0.89-4.98
		l0.44-11.8l-5.56-6.82l0.45-7.61l-1.33,1.05l3.11-5.77h-0.89c-3.26-5.77-5.19-8.83-5.78-9.18l0.44-3.15l-4.67-1.31
		c-0.59-3.32-2.37-5.25-5.34-5.77l-10.68-1.57c-3.71-2.62-7.34-3.93-10.9-3.93l-3.11,0.52l-0.45-1.57l-3.11-0.52l-1.56,2.1
		c-4.45-3.67-6.67-7.43-6.67-11.28v-4.72c2.52-1.4,5.93-2.45,10.23-3.15c4.3-0.7,8.9-1.79,13.79-3.28c4.89-1.48,8.9-2.23,12.01-2.23
		c1.48,0,2.82,0.35,4,1.05l12.24,7.61l14.24,4.72l11.35,10.75l0.44-1.57l4.45,10.75l6.9,20.46l0.89,22.03
		c1.19,0.52,1.78,1.75,1.78,3.67c0,2.27-0.59,4.81-1.78,7.61l0.89,7.61l-3.56,13.38v22.03l-6.45,6.29v12.06
		c-4.75,5.77-7.12,11.8-7.12,18.1c0,1.93,0.15,3.41,0.44,4.46c-2.22,3.32-5.27,11.54-9.12,24.65l4.45,7.87l-4.45,1.84l0.89,11.28
		c1.78,1.57,2.67,3.85,2.67,6.82c0,1.93-0.15,3.41-0.45,4.46l8.23,4.72l4.45-1.05l3.34,6.56c2.52-2.62,4.74-3.93,6.67-3.93
		c1.93,0,3.48,0.7,4.67,2.1h5.34l4.67,4.98c-1.48,12.24-6.23,17.49-14.24,15.74c-2.67-0.52-4.89-0.79-6.67-0.79
		c-3.56,0-6.45,1.66-8.68,4.98l-1.33-4.46l-6.45,3.93c-2.37-1.22-4.53-1.84-6.45-1.84c-6.67,0-10.01,7.17-10.01,21.51v6.56
		l-2.67,3.67v9.18c-3.41,6.82-5.12,12.24-5.12,16.26l0.45,4.72c0,0.52-0.37,1.71-1.11,3.54c-0.74,1.84-1.41,4.46-2,7.87
		c-0.59,3.41-1.63,9.05-3.11,16.92c-2.82,7.87-5.27,15.83-7.34,23.87c-3.71,3.32-8.9,10.67-15.57,22.03v0.52
		c0,0.88-1.6,3.63-4.78,8.26c-3.19,4.63-7.45,9.22-12.79,13.77l1.78,2.1l-6.45,3.15l-3.12,8.65l-9.57,3.15l-3.78,3.15l-21.36,6.56
		c-2.67,1.05-4.82,1.57-6.45,1.57c-1.78,0-3.71-0.88-5.78-2.62c-5.19-0.52-7.79-2.88-7.79-7.08c0-1.4,0.15-2.45,0.45-3.15
		l-5.12-6.03l0.67-9.44l10.46-2.88l4.45,4.98l6.01-3.41l6.67,1.84c2.82,0,5.19-1.09,7.12-3.28c1.93-2.19,5.93-6.34,12.01-12.46
		c0.29-3.32,2.74-7.17,7.34-11.54c4.6-4.37,6.9-7.52,6.9-9.44l-0.44-5.25l4.89-6.56l3.78-0.52l-0.89-2.62
		c0.89-1.4,1.48-6.56,1.78-15.47l4.45-7.08l-0.45-6.56c9.19-20.81,13.79-33.83,13.79-39.08v-1.57c2.82-11.71,4.56-18.4,5.23-20.06
		c0.67-1.66,1-4.15,1-7.47v-4.2c2.52-2.79,3.78-4.98,3.78-6.56C1415.06,479.41,1414.76,478.36,1414.17,477.66z"/>
</g>
</svg>
